<?xml version="1.0" encoding="UTF-8" standalone="no"?>
<!-- Created with Inkscape (http://www.inkscape.org/) -->

<svg
   xmlns:dc="http://purl.org/dc/elements/1.1/"
   xmlns:cc="http://creativecommons.org/ns#"
   xmlns:rdf="http://www.w3.org/1999/02/22-rdf-syntax-ns#"
   xmlns:svg="http://www.w3.org/2000/svg"
   xmlns="http://www.w3.org/2000/svg"
   xmlns:sodipodi="http://sodipodi.sourceforge.net/DTD/sodipodi-0.dtd"
   xmlns:inkscape="http://www.inkscape.org/namespaces/inkscape"
   width="168.81287mm"
   height="58.541748mm"
   viewBox="0 0 598.15583 207.43139"
   id="svg2"
   version="1.1"
   inkscape:version="0.91 r13725"
   sodipodi:docname="scopes_logo.svg"
   inkscape:export-filename="/home/lritter/Desktop/scopes_logo.png"
   inkscape:export-xdpi="90"
   inkscape:export-ydpi="90">
  <defs
     id="defs4">
    <clipPath
       clipPathUnits="userSpaceOnUse"
       id="clipPath9224">
      <rect
         style="color:#000000;clip-rule:nonzero;display:inline;overflow:visible;visibility:visible;opacity:1;isolation:auto;mix-blend-mode:normal;color-interpolation:sRGB;color-interpolation-filters:linearRGB;solid-color:#000000;solid-opacity:1;fill:#cccccc;fill-opacity:1;fill-rule:nonzero;stroke:none;stroke-width:2.5;stroke-linecap:butt;stroke-linejoin:miter;stroke-miterlimit:4;stroke-dasharray:none;stroke-dashoffset:0;stroke-opacity:1;marker:none;color-rendering:auto;image-rendering:auto;shape-rendering:auto;text-rendering:auto;enable-background:accumulate"
         id="rect9226"
         width="30.68594"
         height="122.74375"
         x="343.68253"
         y="1368.5929"
         rx="3.07058"
         ry="3.5456004"
         transform="matrix(1,0,0.5,0.8660254,0,0)" />
    </clipPath>
    <clipPath
       clipPathUnits="userSpaceOnUse"
       id="clipPath9251">
      <rect
         transform="matrix(1,0,0.5,0.8660254,0,0)"
         ry="9"
         rx="9"
         y="1374.7301"
         x="570.75842"
         height="122.74375"
         width="30.68594"
         id="rect9253"
         style="color:#000000;clip-rule:nonzero;display:inline;overflow:visible;visibility:visible;opacity:1;isolation:auto;mix-blend-mode:normal;color-interpolation:sRGB;color-interpolation-filters:linearRGB;solid-color:#000000;solid-opacity:1;fill:#cccccc;fill-opacity:1;fill-rule:nonzero;stroke:none;stroke-width:2.5;stroke-linecap:butt;stroke-linejoin:miter;stroke-miterlimit:4;stroke-dasharray:none;stroke-dashoffset:0;stroke-opacity:1;marker:none;color-rendering:auto;image-rendering:auto;shape-rendering:auto;text-rendering:auto;enable-background:accumulate" />
    </clipPath>
  </defs>
  <sodipodi:namedview
     id="base"
     pagecolor="#ffffff"
     bordercolor="#666666"
     borderopacity="1.0"
     inkscape:pageopacity="0"
     inkscape:pageshadow="2"
     inkscape:zoom="1"
     inkscape:cx="41.505572"
     inkscape:cy="33.427155"
     inkscape:document-units="px"
     inkscape:current-layer="layer1"
     showgrid="false"
     inkscape:snap-smooth-nodes="false"
     inkscape:object-nodes="true"
     inkscape:window-width="1887"
     inkscape:window-height="1056"
     inkscape:window-x="33"
     inkscape:window-y="24"
     inkscape:window-maximized="1"
     showguides="false"
     inkscape:snap-bbox="true"
     inkscape:bbox-nodes="true"
     inkscape:snap-intersection-paths="false"
     fit-margin-top="10"
     fit-margin-left="10"
     fit-margin-right="10"
     fit-margin-bottom="10">
    <inkscape:grid
       type="xygrid"
       id="grid4136"
       visible="true"
       enabled="true"
       originx="-65.320527"
       originy="-791.62395" />
    <inkscape:grid
       type="axonomgrid"
       id="grid4749"
       units="mm"
       empspacing="5"
       visible="false"
       enabled="false"
       originx="-65.320527"
       originy="-791.62395" />
  </sodipodi:namedview>
  <metadata
     id="metadata7">
    <rdf:RDF>
      <cc:Work
         rdf:about="">
        <dc:format>image/svg+xml</dc:format>
        <dc:type
           rdf:resource="http://purl.org/dc/dcmitype/StillImage" />
        <dc:title></dc:title>
      </cc:Work>
    </rdf:RDF>
  </metadata>
  <g
     inkscape:label="Layer 1"
     inkscape:groupmode="layer"
     id="layer1"
     transform="translate(-65.320525,-53.306835)">
    <g
       id="g13395">
      <path
         sodipodi:nodetypes="ccccc"
         inkscape:connector-curvature="0"
         id="path8572"
         d="m 177.4678,115.3146 -15.343,-26.5747 -30.6859,0 15.3429,26.5747 z"
         style="color:#000000;clip-rule:nonzero;display:inline;overflow:visible;visibility:visible;opacity:1;isolation:auto;mix-blend-mode:normal;color-interpolation:sRGB;color-interpolation-filters:linearRGB;solid-color:#000000;solid-opacity:1;fill:#5fd38d;fill-opacity:1;fill-rule:nonzero;stroke:none;stroke-width:2.5;stroke-linecap:butt;stroke-linejoin:miter;stroke-miterlimit:4;stroke-dasharray:none;stroke-dashoffset:0;stroke-opacity:1;marker:none;color-rendering:auto;image-rendering:auto;shape-rendering:auto;text-rendering:auto;enable-background:accumulate" />
      <path
         inkscape:connector-curvature="0"
         id="path8574"
         d="m 146.7826,115.3157 15.3418,26.5742 30.6855,0 -15.3418,-26.5742 -30.6855,0 z"
         style="color:#000000;clip-rule:nonzero;display:inline;overflow:visible;visibility:visible;opacity:1;isolation:auto;mix-blend-mode:normal;color-interpolation:sRGB;color-interpolation-filters:linearRGB;solid-color:#000000;solid-opacity:1;fill:#ff9955;fill-opacity:1;fill-rule:nonzero;stroke:none;stroke-width:2.5;stroke-linecap:butt;stroke-linejoin:miter;stroke-miterlimit:4;stroke-dasharray:none;stroke-dashoffset:0;stroke-opacity:1;marker:none;color-rendering:auto;image-rendering:auto;shape-rendering:auto;text-rendering:auto;enable-background:accumulate" />
      <path
         style="color:#000000;clip-rule:nonzero;display:inline;overflow:visible;visibility:visible;opacity:1;isolation:auto;mix-blend-mode:normal;color-interpolation:sRGB;color-interpolation-filters:linearRGB;solid-color:#000000;solid-opacity:1;fill:#d35f8d;fill-opacity:1;fill-rule:nonzero;stroke:none;stroke-width:2.5;stroke-linecap:butt;stroke-linejoin:miter;stroke-miterlimit:4;stroke-dasharray:none;stroke-dashoffset:0;stroke-opacity:1;marker:none;color-rendering:auto;image-rendering:auto;shape-rendering:auto;text-rendering:auto;enable-background:accumulate"
         d="m 208.1537,168.4643 -15.343,-26.5748 -30.6859,0 15.343,26.5748 z"
         id="path8576"
         inkscape:connector-curvature="0"
         sodipodi:nodetypes="ccccc" />
      <path
         inkscape:connector-curvature="0"
         style="color:#000000;clip-rule:nonzero;display:inline;overflow:visible;visibility:visible;opacity:1;isolation:auto;mix-blend-mode:normal;color-interpolation:sRGB;color-interpolation-filters:linearRGB;solid-color:#000000;solid-opacity:1;fill:#5f8dd3;fill-opacity:1;fill-rule:nonzero;stroke:none;stroke-width:2.5;stroke-linecap:butt;stroke-linejoin:miter;stroke-miterlimit:4;stroke-dasharray:none;stroke-dashoffset:0;stroke-opacity:1;marker:none;color-rendering:auto;image-rendering:auto;shape-rendering:auto;text-rendering:auto;enable-background:accumulate"
         d="m 177.4685,168.4653 15.3418,26.5742 30.6855,0 -15.3418,-26.5742 -30.6855,0 z"
         id="path8578" />
      <path
         inkscape:connector-curvature="0"
         style="color:#000000;clip-rule:nonzero;display:inline;overflow:visible;visibility:visible;opacity:1;isolation:auto;mix-blend-mode:normal;color-interpolation:sRGB;color-interpolation-filters:linearRGB;solid-color:#000000;solid-opacity:1;fill:#b7bec8;fill-opacity:1;fill-rule:nonzero;stroke:none;stroke-width:2.5;stroke-linecap:butt;stroke-linejoin:miter;stroke-miterlimit:4;stroke-dasharray:none;stroke-dashoffset:0;stroke-opacity:1;marker:none;color-rendering:auto;image-rendering:auto;shape-rendering:auto;text-rendering:auto;enable-background:accumulate"
         d="m 131.4392,141.8891 -15.3438,26.5762 -15.3418,26.5742 30.6856,0 15.3418,-26.5742 15.3438,-26.5762 -30.6856,0 z"
         id="path8580" />
    </g>
    <g
       style="color:#000000;clip-rule:nonzero;display:inline;overflow:visible;visibility:visible;opacity:1;isolation:auto;mix-blend-mode:normal;color-interpolation:sRGB;color-interpolation-filters:linearRGB;solid-color:#000000;solid-opacity:1;fill:#939dac;fill-opacity:1;fill-rule:nonzero;stroke:none;stroke-width:0.44267052;stroke-linecap:butt;stroke-linejoin:miter;stroke-miterlimit:4;stroke-dasharray:none;stroke-dashoffset:0;stroke-opacity:1;marker:none;color-rendering:auto;image-rendering:auto;shape-rendering:auto;text-rendering:auto;enable-background:accumulate"
       transform="matrix(5.6475411,0,0,5.6475411,-2260.8712,-1640.236)"
       id="g8721">
      <path
         inkscape:connector-curvature="0"
         id="path8723"
         style="color:#000000;font-style:normal;font-variant:normal;font-weight:300;font-stretch:normal;font-size:medium;line-height:100%;font-family:'Source Sans Pro';-inkscape-font-specification:'Source Sans Pro, Light';text-align:center;letter-spacing:0px;word-spacing:0px;writing-mode:lr-tb;text-anchor:middle;clip-rule:nonzero;display:inline;overflow:visible;visibility:visible;isolation:auto;mix-blend-mode:normal;color-interpolation:sRGB;color-interpolation-filters:linearRGB;solid-color:#000000;solid-opacity:1;fill:#939dac;fill-opacity:1;fill-rule:nonzero;stroke:none;stroke-width:0.44267052;stroke-linecap:butt;stroke-linejoin:miter;stroke-miterlimit:4;stroke-dasharray:none;stroke-dashoffset:0;stroke-opacity:1;marker:none;color-rendering:auto;image-rendering:auto;shape-rendering:auto;text-rendering:auto;enable-background:accumulate"
         d="m 448.13046,324.80038 q -1.45607,0 -2.66946,-0.51232 -1.21339,-0.53929 -2.07624,-1.26732 l 0.70107,-0.88982 q 0.83589,0.70107 1.77964,1.18642 0.94374,0.4584 2.34588,0.4584 1.53696,0 2.29196,-0.755 0.78197,-0.78196 0.78197,-1.8066 0,-0.59322 -0.29661,-1.05161 -0.26964,-0.45839 -0.72804,-0.78196 -0.45839,-0.32357 -1.02464,-0.56625 -0.53928,-0.24268 -1.10553,-0.45839 -0.72803,-0.26965 -1.48303,-0.56625 -0.72804,-0.29661 -1.32125,-0.70107 -0.59321,-0.43143 -0.97071,-0.99768 -0.35054,-0.59321 -0.35054,-1.4291 0,-0.70107 0.26965,-1.32125 0.26964,-0.64714 0.80892,-1.10553 0.53929,-0.48536 1.29429,-0.755 0.78196,-0.26964 1.8066,-0.26964 1.02464,0 1.99535,0.3775 0.99768,0.37749 1.69875,0.97071 l -0.64714,0.83589 q -0.64714,-0.48536 -1.37518,-0.80893 -0.72803,-0.35053 -1.72571,-0.35053 -0.755,0 -1.29428,0.21571 -0.53929,0.18875 -0.91679,0.51232 -0.35053,0.32357 -0.53928,0.755 -0.16179,0.43143 -0.16179,0.86286 0,0.56624 0.24268,0.97071 0.26964,0.3775 0.70107,0.6741 0.43143,0.29661 0.97071,0.53929 0.56625,0.21571 1.1325,0.43143 0.755,0.2966 1.51,0.59321 0.755,0.2966 1.34821,0.72803 0.62018,0.43143 0.99768,1.07857 0.3775,0.62018 0.3775,1.56393 0,0.72803 -0.29661,1.40214 -0.26964,0.64714 -0.83589,1.15946 -0.56625,0.48535 -1.37518,0.78196 -0.80892,0.29661 -1.86053,0.29661 z" />
      <path
         inkscape:connector-curvature="0"
         id="path8725"
         style="color:#000000;font-style:normal;font-variant:normal;font-weight:300;font-stretch:normal;font-size:medium;line-height:100%;font-family:'Source Sans Pro';-inkscape-font-specification:'Source Sans Pro, Light';text-align:center;letter-spacing:0px;word-spacing:0px;writing-mode:lr-tb;text-anchor:middle;clip-rule:nonzero;display:inline;overflow:visible;visibility:visible;isolation:auto;mix-blend-mode:normal;color-interpolation:sRGB;color-interpolation-filters:linearRGB;solid-color:#000000;solid-opacity:1;fill:#939dac;fill-opacity:1;fill-rule:nonzero;stroke:none;stroke-width:0.44267052;stroke-linecap:butt;stroke-linejoin:miter;stroke-miterlimit:4;stroke-dasharray:none;stroke-dashoffset:0;stroke-opacity:1;marker:none;color-rendering:auto;image-rendering:auto;shape-rendering:auto;text-rendering:auto;enable-background:accumulate"
         d="m 459.59035,324.80038 q -1.26732,0 -2.34589,-0.45839 -1.05161,-0.4584 -1.86053,-1.32125 -0.78197,-0.86286 -1.24036,-2.10321 -0.43143,-1.26732 -0.43143,-2.88517 0,-1.61786 0.48536,-2.88518 0.48536,-1.29428 1.29428,-2.15713 0.80893,-0.86286 1.86054,-1.32125 1.07856,-0.45839 2.26499,-0.45839 1.34821,0 2.23803,0.48535 0.88982,0.48536 1.56393,1.10554 l -0.70107,0.83589 q -0.62018,-0.59322 -1.37518,-0.97072 -0.755,-0.40446 -1.69875,-0.40446 -0.99767,0 -1.86053,0.43143 -0.83589,0.40446 -1.48303,1.18643 -0.62018,0.75499 -0.99768,1.8066 -0.35053,1.0516 -0.35053,2.34589 0,1.26731 0.32357,2.31892 0.35053,1.0516 0.94375,1.8066 0.62017,0.755 1.48303,1.18643 0.88982,0.40446 1.94142,0.40446 1.02465,0 1.8875,-0.43143 0.88982,-0.43142 1.56393,-1.0516 l 0.62017,0.83589 q -0.83589,0.72804 -1.86053,1.21339 -1.02464,0.48536 -2.26499,0.48536 z" />
      <path
         inkscape:connector-curvature="0"
         id="path8727"
         style="color:#000000;font-style:normal;font-variant:normal;font-weight:300;font-stretch:normal;font-size:medium;line-height:100%;font-family:'Source Sans Pro';-inkscape-font-specification:'Source Sans Pro, Light';text-align:center;letter-spacing:0px;word-spacing:0px;writing-mode:lr-tb;text-anchor:middle;clip-rule:nonzero;display:inline;overflow:visible;visibility:visible;isolation:auto;mix-blend-mode:normal;color-interpolation:sRGB;color-interpolation-filters:linearRGB;solid-color:#000000;solid-opacity:1;fill:#939dac;fill-opacity:1;fill-rule:nonzero;stroke:none;stroke-width:0.44267052;stroke-linecap:butt;stroke-linejoin:miter;stroke-miterlimit:4;stroke-dasharray:none;stroke-dashoffset:0;stroke-opacity:1;marker:none;color-rendering:auto;image-rendering:auto;shape-rendering:auto;text-rendering:auto;enable-background:accumulate"
         d="m 470.03486,324.80038 q -1.15946,0 -2.21107,-0.45839 -1.0516,-0.4584 -1.86053,-1.32125 -0.78196,-0.86286 -1.26732,-2.10321 -0.45839,-1.26732 -0.45839,-2.88517 0,-1.61786 0.45839,-2.88518 0.48536,-1.29428 1.26732,-2.15713 0.80893,-0.86286 1.86053,-1.32125 1.05161,-0.45839 2.21107,-0.45839 1.15946,0 2.21107,0.45839 1.07857,0.45839 1.86053,1.32125 0.80892,0.86285 1.26732,2.15713 0.48535,1.26732 0.48535,2.88518 0,1.61785 -0.48535,2.88517 -0.4584,1.24035 -1.26732,2.10321 -0.78196,0.86285 -1.86053,1.32125 -1.05161,0.45839 -2.21107,0.45839 z m 0,-1.05161 q 0.97071,0 1.8066,-0.40446 0.86286,-0.43143 1.45607,-1.18643 0.62018,-0.755 0.97071,-1.8066 0.35054,-1.05161 0.35054,-2.31892 0,-1.29429 -0.35054,-2.34589 -0.35053,-1.05161 -0.97071,-1.8066 -0.59321,-0.78197 -1.45607,-1.18643 -0.83589,-0.43143 -1.8066,-0.43143 -0.97071,0 -1.8066,0.43143 -0.8359,0.40446 -1.45607,1.18643 -0.59322,0.75499 -0.94375,1.8066 -0.35054,1.0516 -0.35054,2.34589 0,1.26731 0.35054,2.31892 0.35053,1.0516 0.94375,1.8066 0.62017,0.755 1.45607,1.18643 0.83589,0.40446 1.8066,0.40446 z" />
      <path
         inkscape:connector-curvature="0"
         id="path8729"
         style="color:#000000;font-style:normal;font-variant:normal;font-weight:300;font-stretch:normal;font-size:medium;line-height:100%;font-family:'Source Sans Pro';-inkscape-font-specification:'Source Sans Pro, Light';text-align:center;letter-spacing:0px;word-spacing:0px;writing-mode:lr-tb;text-anchor:middle;clip-rule:nonzero;display:inline;overflow:visible;visibility:visible;isolation:auto;mix-blend-mode:normal;color-interpolation:sRGB;color-interpolation-filters:linearRGB;solid-color:#000000;solid-opacity:1;fill:#939dac;fill-opacity:1;fill-rule:nonzero;stroke:none;stroke-width:0.44267052;stroke-linecap:butt;stroke-linejoin:miter;stroke-miterlimit:4;stroke-dasharray:none;stroke-dashoffset:0;stroke-opacity:1;marker:none;color-rendering:auto;image-rendering:auto;shape-rendering:auto;text-rendering:auto;enable-background:accumulate"
         d="m 477.58887,330.32804 0,-18.79406 1.02464,0 0.10786,1.61785 0.0809,0 q 0.94375,-0.755 2.04928,-1.34821 1.1325,-0.59321 2.34589,-0.59321 2.58857,0 3.88285,1.8066 1.29428,1.77964 1.29428,4.79963 0,1.64482 -0.45839,2.9391 -0.45839,1.29429 -1.26732,2.21107 -0.78196,0.88982 -1.83356,1.37518 -1.02465,0.45839 -2.15714,0.45839 -0.91679,0 -1.8875,-0.40447 -0.97071,-0.43142 -1.99535,-1.18642 l 0,7.11855 -1.18643,0 z m 5.01535,-6.57927 q 0.97071,0 1.8066,-0.43143 0.83589,-0.43142 1.42911,-1.21339 0.59321,-0.78196 0.91678,-1.86053 0.35053,-1.10553 0.35053,-2.42678 0,-1.18642 -0.24267,-2.21106 -0.21572,-1.02464 -0.70107,-1.75268 -0.48536,-0.755 -1.26732,-1.15946 -0.78196,-0.43143 -1.8875,-0.43143 -0.97071,0 -2.02232,0.56625 -1.02464,0.53928 -2.21106,1.56393 l 0,7.6848 q 1.1325,0.91678 2.10321,1.29428 0.97071,0.3775 1.72571,0.3775 z" />
      <path
         inkscape:connector-curvature="0"
         id="path8731"
         style="color:#000000;font-style:normal;font-variant:normal;font-weight:300;font-stretch:normal;font-size:medium;line-height:100%;font-family:'Source Sans Pro';-inkscape-font-specification:'Source Sans Pro, Light';text-align:center;letter-spacing:0px;word-spacing:0px;writing-mode:lr-tb;text-anchor:middle;clip-rule:nonzero;display:inline;overflow:visible;visibility:visible;isolation:auto;mix-blend-mode:normal;color-interpolation:sRGB;color-interpolation-filters:linearRGB;solid-color:#000000;solid-opacity:1;fill:#939dac;fill-opacity:1;fill-rule:nonzero;stroke:none;stroke-width:0.44267052;stroke-linecap:butt;stroke-linejoin:miter;stroke-miterlimit:4;stroke-dasharray:none;stroke-dashoffset:0;stroke-opacity:1;marker:none;color-rendering:auto;image-rendering:auto;shape-rendering:auto;text-rendering:auto;enable-background:accumulate"
         d="m 496.1459,324.80038 q -1.24036,0 -2.34589,-0.45839 -1.07857,-0.4584 -1.88749,-1.32125 -0.80893,-0.88982 -1.29429,-2.13018 -0.45839,-1.26731 -0.45839,-2.8582 0,-1.59089 0.45839,-2.85821 0.48536,-1.26732 1.26732,-2.13018 0.80893,-0.88982 1.8066,-1.34821 1.02465,-0.48535 2.10321,-0.48535 2.31893,0 3.64017,1.56392 1.32125,1.56393 1.32125,4.42214 0,0.24267 0,0.48535 0,0.24268 -0.0539,0.48536 l -9.32962,0 q 0.027,1.21339 0.3775,2.26499 0.35054,1.02464 0.97071,1.77964 0.64714,0.72804 1.53696,1.15946 0.88982,0.40447 1.99536,0.40447 1.0516,0 1.88749,-0.29661 0.86286,-0.32357 1.59089,-0.86286 l 0.48536,0.91679 q -0.78197,0.45839 -1.72571,0.86285 -0.91679,0.40447 -2.34589,0.40447 z m -4.77267,-7.60391 8.25105,0 q 0,-2.50768 -1.02464,-3.72107 -1.02464,-1.24035 -2.77731,-1.24035 -0.83589,0 -1.59089,0.35053 -0.755,0.32357 -1.37518,0.97071 -0.59321,0.64715 -0.99767,1.56393 -0.3775,0.91678 -0.48536,2.07625 z" />
      <path
         inkscape:connector-curvature="0"
         id="path8733"
         style="color:#000000;font-style:normal;font-variant:normal;font-weight:300;font-stretch:normal;font-size:medium;line-height:100%;font-family:'Source Sans Pro';-inkscape-font-specification:'Source Sans Pro, Light';text-align:center;letter-spacing:0px;word-spacing:0px;writing-mode:lr-tb;text-anchor:middle;clip-rule:nonzero;display:inline;overflow:visible;visibility:visible;isolation:auto;mix-blend-mode:normal;color-interpolation:sRGB;color-interpolation-filters:linearRGB;solid-color:#000000;solid-opacity:1;fill:#939dac;fill-opacity:1;fill-rule:nonzero;stroke:none;stroke-width:0.44267052;stroke-linecap:butt;stroke-linejoin:miter;stroke-miterlimit:4;stroke-dasharray:none;stroke-dashoffset:0;stroke-opacity:1;marker:none;color-rendering:auto;image-rendering:auto;shape-rendering:auto;text-rendering:auto;enable-background:accumulate"
         d="m 506.53931,324.80038 q -1.45607,0 -2.66946,-0.51232 -1.21339,-0.53929 -2.07624,-1.26732 l 0.70107,-0.88982 q 0.83589,0.70107 1.77964,1.18642 0.94375,0.4584 2.34589,0.4584 1.53696,0 2.29196,-0.755 0.78196,-0.78196 0.78196,-1.8066 0,-0.59322 -0.29661,-1.05161 -0.26964,-0.45839 -0.72803,-0.78196 -0.45839,-0.32357 -1.02464,-0.56625 -0.53929,-0.24268 -1.10554,-0.45839 -0.72803,-0.26965 -1.48303,-0.56625 -0.72803,-0.29661 -1.32125,-0.70107 -0.59321,-0.43143 -0.97071,-0.99768 -0.35053,-0.59321 -0.35053,-1.4291 0,-0.70107 0.26964,-1.32125 0.26964,-0.64714 0.80893,-1.10553 0.53928,-0.48536 1.29428,-0.755 0.78196,-0.26964 1.8066,-0.26964 1.02464,0 1.99535,0.3775 0.99768,0.37749 1.69875,0.97071 l -0.64714,0.83589 q -0.64714,-0.48536 -1.37518,-0.80893 -0.72803,-0.35053 -1.72571,-0.35053 -0.755,0 -1.29428,0.21571 -0.53928,0.18875 -0.91678,0.51232 -0.35054,0.32357 -0.53929,0.755 -0.16178,0.43143 -0.16178,0.86286 0,0.56624 0.24267,0.97071 0.26965,0.3775 0.70107,0.6741 0.43143,0.29661 0.97072,0.53929 0.56625,0.21571 1.13249,0.43143 0.755,0.2966 1.51,0.59321 0.755,0.2966 1.34821,0.72803 0.62018,0.43143 0.99768,1.07857 0.3775,0.62018 0.3775,1.56393 0,0.72803 -0.29661,1.40214 -0.26964,0.64714 -0.83589,1.15946 -0.56625,0.48535 -1.37518,0.78196 -0.80892,0.29661 -1.86053,0.29661 z" />
    </g>
  </g>
</svg>
